<svg xmlns="http://www.w3.org/2000/svg" width="200" height="200" viewBox="0 0 2000 2000"><g id="l2mTlbPXxWjUVmSlDFmzM6D" fill="rgb(255,0,0)" style="transform: none;"><g style="transform: none;"><path id="ppcvxHwfw" d="M0 1824 c0 -137 3 -174 13 -168 6 5 32 22 57 40 67 48 192 103 300 132 84 22 115 25 270 25 129 1 195 -4 250 -16 41 -9 80 -17 85 -17 6 0 48 41 93 90 l83 90 -575 0 -576 0 0 -176z"></path><path id="pzX13UTmu" d="M1823 1982 c8 -9 27 -42 41 -72 36 -77 36 -193 0 -316 -14 -49 -27 -90 -28 -92 -2 -2 -23 8 -47 21 l-43 24 3 61 c3 74 -17 122 -66 159 -29 23 -44 26 -106 26 -61 1 -80 -4 -122 -27 -66 -38 -134 -89 -135 -101 0 -5 15 -20 33 -32 163 -112 320 -348 365 -549 6 -27 16 -70 22 -96 27 -125 4 -368 -51 -529 -26 -78 -109 -245 -127 -258 -4 -4 -15 -18 -25 -34 -10 -15 -47 -59 -84 -97 l-65 -70 306 0 306 0 0 1000 0 1000 -97 0 c-91 0 -95 -1 -80 -18z"></path><path id="p6KKhJcHI" d="M590 1591 c-95 -21 -204 -79 -277 -146 l-58 -53 40 -11 c64 -17 144 -13 216 13 80 28 140 68 228 152 l66 63 -70 0 c-38 0 -104 -8 -145 -18z"></path><path id="pDrrRJh4c" d="M1095 1427 c-69 -75 -218 -164 -340 -203 -48 -15 -90 -19 -210 -19 -155 0 -197 7 -318 57 -27 11 -50 18 -52 16 -2 -2 -18 -32 -35 -67 -145 -292 -157 -643 -29 -895 67 -132 183 -241 304 -286 73 -26 207 -37 287 -22 55 11 187 58 198 71 3 3 25 19 50 35 62 39 163 147 201 215 18 31 40 70 49 87 24 41 64 161 89 266 17 69 21 118 21 240 0 161 -15 237 -69 362 -25 56 -101 165 -116 166 -5 0 -19 -10 -30 -23z"></path></g></g></svg>